<svg height="512pt" viewBox="0 -16 512 511" width="512pt" xmlns="http://www.w3.org/2000/svg"><path d="m486.71875 246.292969c0 22.230469-3.214844 43.695312-9.199219 63.988281-14.019531 47.535156-43.269531 88.550781-82.101562 117.386719-37.566407 27.902343-84.09375 44.40625-134.484375 44.40625-124.691406 0-225.78125-101.089844-225.78125-225.78125 0-62.394531 25.3125-118.878907 66.230468-159.746094 40.851563-40.800781 97.253907-66.035156 159.550782-66.035156 46.761718 0 90.203125 14.21875 126.238281 38.5625 60.0625 40.574219 99.546875 109.289062 99.546875 187.21875zm0 0" fill="#5f9eeb"/><path d="m486.71875 246.292969c0 22.234375-3.214844 43.695312-9.195312 63.992187-14.019532 47.527344-43.277344 88.550782-82.109376 117.378906-37.5625 27.914063-84.089843 44.414063-134.480468 44.414063-5.085938 0-10.140625-.175781-15.144532-.5 44.554688-2.953125 85.570313-18.816406 119.332032-43.914063 38.832031-28.828124 68.078125-69.851562 82.109375-117.378906 5.976562-20.296875 9.195312-41.757812 9.195312-63.992187 0-77.929688-39.488281-146.644531-99.542969-187.214844-32.121093-21.707031-70.125-35.359375-111.121093-38.070313 5.015625-.324218 10.074219-.5 15.171875-.5 46.765625 0 90.203125 14.21875 126.238281 38.570313 60.058594 40.570313 99.546875 109.285156 99.546875 187.214844zm0 0" fill="#3a82d0"/><path d="m486.71875 246.292969c0 22.234375-3.214844 43.695312-9.195312 63.992187l-39.976563-39.976562c-1.460937-1.460938-3.339844-2.433594-5.375-2.785156l-45.523437-7.835938c-2.035157-.347656-3.914063-1.324219-5.375-2.785156l-6-6c-1.875-1.875-2.929688-4.417969-2.929688-7.070313v-61.503906c0-2.652344 1.054688-5.195313 2.929688-7.070313l8.96875-8.972656c1.875-1.875 2.929687-4.417968 2.929687-7.070312v-100.136719c60.058594 40.570313 99.546875 109.285156 99.546875 187.214844zm0 0" fill="#a0d37d"/><path d="m486.71875 246.292969c0 22.234375-3.214844 43.695312-9.195312 63.992187l-24.542969-24.542968c2.261719-12.808594 3.445312-25.984376 3.445312-39.449219 0-63.917969-26.558593-121.632813-69.253906-162.699219v-24.515625c60.058594 40.570313 99.546875 109.285156 99.546875 187.214844zm0 0" fill="#84b75b"/><path d="m395.417969 383.347656v44.320313c-37.558594 27.894531-84.066407 44.398437-134.441407 44.40625-122.859374.023437-223.777343-99.140625-225.792968-221.984375-1.050782-63.898438 24.453125-121.847656 66.203125-163.542969l17.390625 48.207031c1.414062 3.921875 5.132812 6.53125 9.300781 6.53125h67.570313c2.625 0 5.140624 1.042969 6.992187 2.898438l29.894531 29.894531c1.855469 1.855469 2.898438 4.371094 2.898438 6.992187v114.640626c0 2.625 1.042968 5.140624 2.894531 6.992187l24.023437 24.023437c1.851563 1.851563 4.367188 2.894532 6.992188 2.894532h72.347656c2.625 0 5.136719 1.042968 6.992188 2.894531l43.839844 43.839844c1.851562 1.855469 2.894531 4.371093 2.894531 6.992187zm0 0" fill="#a0d37d"/><path d="m395.421875 400.648438v27.019531c-37.5625 27.898437-84.070313 44.398437-134.441406 44.410156-5.082031 0-10.121094-.171875-15.121094-.511719 44.53125-2.957031 85.519531-18.820312 119.261719-43.898437 10.898437-8.089844 21.039062-17.140625 30.300781-27.019531zm0 0" fill="#84b75b"/><path d="m356.632812 64.941406c0 5.382813-.960937 10.539063-2.71875 15.320313-6.238281 16.984375-22.558593 29.105469-41.710937 29.105469-19.148437 0-35.46875-12.121094-41.710937-29.105469-1.757813-4.78125-2.71875-9.9375-2.71875-15.320313 0-24.542968 19.898437-44.429687 44.429687-44.429687 24.535156 0 44.429687 19.886719 44.429687 44.429687zm0 0" fill="#faaa3c"/><path d="m353.914062 80.261719c-6.238281 16.984375-22.558593 29.105469-41.710937 29.105469-19.148437 0-35.46875-12.121094-41.710937-29.105469 6.238281-16.996094 22.5625-29.109375 41.710937-29.109375 19.152344 0 35.472656 12.113281 41.710937 29.109375zm0 0" fill="#ed7a98"/><path d="m336.714844 32.511719c0 13.539062-10.972656 24.511719-24.511719 24.511719-13.535156 0-24.511719-10.972657-24.511719-24.511719 0-13.535157 10.976563-24.511719 24.511719-24.511719 13.539063 0 24.511719 10.976562 24.511719 24.511719zm0 0" fill="#f8c298"/><path d="m210.691406 361.714844c0 5.382812-.960937 10.542968-2.714844 15.320312-6.242187 16.984375-22.5625 29.109375-41.714843 29.109375-19.148438 0-35.46875-12.125-41.710938-29.109375-1.757812-4.777344-2.714843-9.9375-2.714843-15.320312 0-24.542969 19.894531-44.429688 44.425781-44.429688 24.535156 0 44.429687 19.886719 44.429687 44.429688zm0 0" fill="#627687"/><path d="m207.976562 377.035156c-6.242187 16.984375-22.5625 29.109375-41.714843 29.109375-19.148438 0-35.46875-12.125-41.710938-29.109375 6.238281-16.996094 22.5625-29.105468 41.710938-29.105468 19.152343 0 35.472656 12.109374 41.714843 29.105468zm0 0" fill="#f1dd47"/><path d="m190.777344 329.289062c0 13.535157-10.976563 24.511719-24.511719 24.511719-13.539063 0-24.511719-10.976562-24.511719-24.511719 0-13.539062 10.972656-24.511718 24.511719-24.511718 13.535156 0 24.511719 10.972656 24.511719 24.511718zm0 0" fill="#d88852"/><path d="m96.355469 214.597656c0 5.382813-.957031 10.539063-2.714844 15.316406-6.242187 16.988282-22.5625 29.109376-41.710937 29.109376-19.152344 0-35.472657-12.121094-41.714844-29.109376-1.753906-4.777343-2.714844-9.9375-2.714844-15.316406 0-24.542968 19.894531-44.429687 44.429688-44.429687 24.53125 0 44.425781 19.886719 44.425781 44.429687zm0 0" fill="#faaa3c"/><path d="m93.640625 229.914062c-6.238281 16.988282-22.5625 29.109376-41.710937 29.109376-19.152344 0-35.472657-12.121094-41.710938-29.109376 6.238281-16.992187 22.558594-29.105468 41.710938-29.105468 19.148437 0 35.46875 12.113281 41.710937 29.105468zm0 0" fill="#4fceb7"/><path d="m76.441406 182.167969c0 13.539062-10.976562 24.511719-24.511718 24.511719-13.539063 0-24.511719-10.972657-24.511719-24.511719 0-13.539063 10.972656-24.511719 24.511719-24.511719 13.535156 0 24.511718 10.972656 24.511718 24.511719zm0 0" fill="#f8c298"/><path d="m504.5 139.5625c0 5.382812-.960938 10.539062-2.71875 15.320312-6.238281 16.984376-22.558594 29.105469-41.710938 29.105469-19.148437 0-35.46875-12.121093-41.710937-29.105469-1.757813-4.78125-2.71875-9.941406-2.71875-15.320312 0-24.542969 19.898437-44.429688 44.429687-44.429688 24.535157 0 44.429688 19.886719 44.429688 44.429688zm0 0" fill="#faaa3c"/><path d="m501.78125 154.882812c-6.238281 16.984376-22.558594 29.105469-41.710938 29.105469-19.148437 0-35.46875-12.121093-41.710937-29.105469 6.238281-16.996093 22.5625-29.109374 41.710937-29.109374 19.152344 0 35.472657 12.113281 41.710938 29.109374zm0 0" fill="#4fceb7"/><path d="m484.582031 107.132812c0 13.539063-10.972656 24.511719-24.511719 24.511719-13.535156 0-24.511718-10.972656-24.511718-24.511719 0-13.539062 10.976562-24.511718 24.511718-24.511718 13.539063 0 24.511719 10.972656 24.511719 24.511718zm0 0" fill="#f8c298"/><path d="m243.632812 297.402344c-.453124-.453125-.699218-1.050782-.699218-1.6875v-57.089844c0-4.144531-3.359375-7.5-7.5-7.5-4.144532 0-7.5 3.355469-7.5 7.5v57.089844c0 4.644531 1.808594 9.011718 5.089844 12.296875l24.023437 24.019531c3.28125 3.285156 7.648437 5.09375 12.292969 5.09375h22.324218c4.144532 0 7.5-3.359375 7.5-7.5 0-4.144531-3.355468-7.5-7.5-7.5h-22.324218c-.636719 0-1.238282-.25-1.6875-.699219zm0 0"/><path d="m444.859375 377.476562c-3.289063-2.515624-7.996094-1.890624-10.515625 1.398438-9.316406 12.167969-19.875 23.265625-31.425781 33.167969v-28.691407c0-4.648437-1.808594-9.011718-5.09375-12.296874l-43.835938-43.839844c-3.285156-3.28125-7.652343-5.089844-12.296875-5.089844h-7.355468c-4.144532 0-7.5 3.355469-7.5 7.5 0 4.140625 3.355468 7.5 7.5 7.5h7.355468c.640625 0 1.238282.246094 1.691406.699219l43.835938 43.835937c.449219.453125.699219 1.050782.699219 1.6875v40.480469c-13.136719 9.414063-27.296875 17.386719-42.242188 23.6875-3.816406 1.609375-5.609375 6.007813-4 9.824219 1.210938 2.867187 3.988281 4.589844 6.914063 4.589844.972656 0 1.960937-.191407 2.914062-.589844 37.277344-15.722656 70.042969-41.082032 94.75-73.347656 2.519532-3.289063 1.894532-7.996094-1.394531-10.515626zm0 0"/><path d="m315.855469 457.605469c-17.84375 4.625-36.324219 6.96875-54.921875 6.96875-113.566406 0-207.496094-86.636719-217.40625-198.738281 2.738281.445312 5.539062.6875 8.402344.6875 24.679687 0 45.378906-17.3125 50.628906-40.429688h5.796875c4.140625 0 7.5-3.355469 7.5-7.5s-3.359375-7.5-7.5-7.5h-4.625c-1.027344-15.335938-8.773438-29.375-21.242188-38.460938-2.878906-9.199218-9.804687-16.621093-18.679687-20.183593 9.035156-18.9375 20.742187-36.410157 34.652344-51.902344l13.257812 36.753906c2.476562 6.871094 9.050781 11.484375 16.355469 11.484375h67.570312c.640625 0 1.238281.25 1.691407.703125l29.894531 29.894531c.445312.441407.699219 1.058594.699219 1.6875v15.933594c0 4.144532 3.355468 7.5 7.5 7.5 4.140624 0 7.5-3.355468 7.5-7.5v-15.933594c0-4.644531-1.808594-9.011718-5.09375-12.296874l-29.894532-29.894532c-3.285156-3.285156-7.652344-5.09375-12.296875-5.09375h-67.570312c-1.003907 0-1.90625-.632812-2.246094-1.578125l-15.75-43.652343c15.230469-14.570313 32.566406-26.984376 51.523437-36.691407 3.6875-1.886719 5.144532-6.402343 3.257813-10.09375-1.886719-3.6875-6.40625-5.144531-10.09375-3.257812-47.058594 24.09375-84.804687 63.761719-106.53125 111.863281-12.699219 1.464844-23.160156 10.382812-26.871094 22.261719-13.398437 9.773437-21.363281 25.308593-21.363281 41.957031 0 20.050781 11.429688 37.46875 28.109375 46.121094 7.488281 122.921875 109.285156 218.859375 232.824219 218.859375 19.867187 0 39.613281-2.503907 58.6875-7.449219 4.007812-1.039062 6.417968-5.132812 5.378906-9.140625s-5.136719-6.421875-9.144531-5.378906zm-227.554688-249.351563c-3.039062-2.996094-6.441406-5.617187-10.125-7.792968 1.570313-2.246094 2.867188-4.695313 3.824219-7.308594 3.191406 4.472656 5.351562 9.625 6.300781 15.101562zm-36.371093-43.097656c9.378906 0 17.011718 7.632812 17.011718 17.011719 0 9.382812-7.632812 17.015625-17.011718 17.015625-9.378907 0-17.011719-7.632813-17.011719-17.015625 0-9.378907 7.628906-17.011719 17.011719-17.011719zm-26.269532 35.273438c-3.6875 2.160156-7.066406 4.757812-10.085937 7.722656.960937-5.429688 3.117187-10.542969 6.289062-14.988282.953125 2.597657 2.238281 5.03125 3.796875 7.265626zm-7.324218 29.476562c3.914062-8.597656 10.925781-15.339844 19.710937-18.894531 4.199219 2.027343 8.910156 3.167969 13.882813 3.167969 4.96875 0 9.675781-1.136719 13.875-3.164063 8.683593 3.535156 15.804687 10.367187 19.714843 18.894531-5.832031 12.738282-18.691406 21.613282-33.589843 21.613282-14.902344 0-27.761719-8.878907-33.59375-21.617188zm0 0"/><path d="m166.265625 413.640625c23.96875 0 44.1875-16.328125 50.140625-38.445313.140625.007813.273438.019532.414062.019532h6c4.140626 0 7.5-3.355469 7.5-7.5 0-4.140625-3.359374-7.5-7.5-7.5h-4.675781c-.460937-16.105469-8.308593-30.984375-21.320312-40.464844-4.066407-13.007812-16.230469-22.476562-30.558594-22.476562-14.332031 0-26.496094 9.46875-30.5625 22.480468-13.390625 9.765625-21.367187 25.363282-21.367187 41.957032 0 28.636718 23.292968 51.929687 51.929687 51.929687zm-26.25-66.058594c-3.679687 2.175781-7.082031 4.804688-10.121094 7.800781.949219-5.457031 3.121094-10.605468 6.308594-15.085937.957031 2.605469 2.246094 5.046875 3.8125 7.285156zm26.25 51.058594c-14.902344 0-27.757813-8.875-33.589844-21.609375 3.902344-8.511719 11.03125-15.367188 19.703125-18.902344 4.203125 2.03125 8.914063 3.171875 13.886719 3.171875 4.964844 0 9.671875-1.136719 13.871094-3.167969 8.6875 3.539063 15.808593 10.367188 19.714843 18.898438-5.832031 12.734375-18.6875 21.609375-33.585937 21.609375zm36.367187-43.285156c-3.039062-2.988281-6.4375-5.605469-10.117187-7.78125 1.566406-2.242188 2.863281-4.691407 3.820313-7.300781 3.1875 4.46875 5.34375 9.613281 6.296874 15.082031zm-36.367187-43.078125c9.378906 0 17.011719 7.628906 17.011719 17.011718 0 9.378907-7.632813 17.011719-17.011719 17.011719-9.382813 0-17.015625-7.632812-17.015625-17.011719 0-9.382812 7.632812-17.011718 17.015625-17.011718zm0 0"/><path d="m512 139.558594c0-16.679688-7.953125-32.1875-21.367188-41.964844-4.070312-13.007812-16.230468-22.472656-30.5625-22.472656-11.066406 0-20.839843 5.648437-26.589843 14.210937-22.703125-24.917969-50.726563-44.839843-81.65625-57.941406-2.648438-3.121094-5.675781-5.949219-9.058594-8.414063-4.070313-13.007812-16.230469-22.476562-30.5625-22.476562-10.910156 0-20.5625 5.492188-26.34375 13.855469-8.246094-.875-16.605469-1.34375-24.925781-1.34375-25.707032 0-50.976563 4.15625-75.109375 12.359375-3.921875 1.332031-6.019531 5.59375-4.6875 9.515625 1.0625 3.121093 3.976562 5.085937 7.101562 5.085937.800781 0 1.613281-.128906 2.414063-.398437 22.574218-7.671875 46.21875-11.5625 70.28125-11.5625 4.765625 0 9.546875.164062 14.308594.46875-9.496094 9.625-14.96875 22.660156-14.96875 36.457031 0 26.125 19.394531 47.792969 44.535156 51.394531-.0625.394531-.105469.792969-.105469 1.207031v6c0 4.140626 3.359375 7.5 7.5 7.5s7.5-3.359374 7.5-7.5v-6c0-.414062-.042969-.8125-.105469-1.207031 25.140625-3.601562 44.535156-25.269531 44.535156-51.394531 0-4.007812-.480468-7.945312-1.363281-11.757812 5.777344 3.058593 11.417969 6.378906 16.898438 9.941406v96.09375c0 .65625-.265625 1.304687-.730469 1.769531l-8.96875 8.96875c-3.304688 3.304687-5.125 7.699219-5.125 12.371094v15.082031c0 4.144531 3.355469 7.5 7.5 7.5 4.140625 0 7.5-3.355469 7.5-7.5v-15.082031c0-.664063.257812-1.292969.730469-1.765625l8.96875-8.96875c3.304687-3.304688 5.125-7.699219 5.125-12.375v-85.40625c10.769531 8.359375 20.777343 17.710937 29.832031 27.945312-10.339844 9.746094-16.359375 23.421875-16.359375 37.804688 0 25.371094 18.296875 46.539062 42.386719 51.035156v5.398438c0 4.144531 3.355468 7.5 7.5 7.5 4.140625 0 7.5-3.355469 7.5-7.5v-4.792969c2.171875-.230469 4.296875-.601563 6.382812-1.089844 4.84375 18.242187 7.304688 37.117187 7.304688 56.183594 0 16.679687-1.933594 33.265625-5.671875 49.40625l-30.695313-30.695313c-2.570312-2.570312-5.824218-4.257812-9.40625-4.875l-45.519531-7.832031c-.511719-.089844-.976563-.328125-1.34375-.699219l-6.003906-6c-.464844-.464844-.730469-1.109375-.730469-1.769531v-3.824219c0-4.144531-3.359375-7.5-7.5-7.5-4.144531 0-7.5 3.355469-7.5 7.5v3.824219c0 4.675781 1.820312 9.070313 5.125 12.375l6.003906 6.003906c2.566406 2.570313 5.820313 4.253907 9.40625 4.871094l45.519532 7.835937c.511718.085938.972656.328126 1.34375.695313l36.742187 36.742187c-4.335937 13.691407-10 26.953126-16.96875 39.539063-2.003906 3.621094-.695313 8.1875 2.929687 10.191406 1.152344.640625 2.394532.941407 3.625.941407 2.640626 0 5.199219-1.394532 6.570313-3.867188 19.019531-34.347656 29.074219-73.375 29.074219-112.863281 0-20.964844-2.78125-41.714844-8.265625-61.746094 15.554687-8.980469 26.050781-25.777344 26.050781-44.988281zm-169.726562-96.0625c3.191406 4.46875 5.347656 9.617187 6.296874 15.082031-3.035156-2.988281-6.433593-5.605469-10.113281-7.78125 1.566407-2.242187 2.859375-4.6875 3.816407-7.300781zm-30.070313-27.996094c9.382813 0 17.011719 7.632812 17.011719 17.011719 0 9.382812-7.628906 17.015625-17.011719 17.015625-9.378906 0-17.011719-7.632813-17.011719-17.015625 0-9.378907 7.632813-17.011719 17.011719-17.011719zm-36.347656 42.960938c.960937-5.414063 3.117187-10.515626 6.28125-14.953126.953125 2.59375 2.234375 5.027344 3.792969 7.257813-3.679688 2.152344-7.058594 4.742187-10.074219 7.695313zm36.347656 43.40625c-14.902344 0-27.761719-8.878907-33.589844-21.617188 3.914063-8.601562 10.917969-15.339844 19.703125-18.894531 4.203125 2.03125 8.914063 3.171875 13.886719 3.171875 4.96875 0 9.675781-1.140625 13.875-3.167969 8.6875 3.535156 15.808594 10.367187 19.714844 18.894531-5.832031 12.738282-18.6875 21.613282-33.589844 21.613282zm184.21875 31.222656c-3.019531-2.957032-6.402344-5.542969-10.082031-7.695313 1.558594-2.234375 2.847656-4.675781 3.800781-7.277343 3.167969 4.4375 5.320313 9.542968 6.28125 14.972656zm-36.351563-42.96875c9.378907 0 17.011719 7.632812 17.011719 17.011718 0 9.382813-7.632812 17.011719-17.011719 17.011719-9.378906 0-17.011718-7.628906-17.011718-17.011719 0-9.378906 7.632812-17.011718 17.011718-17.011718zm-30.058593 28.027344c.953125 2.589843 2.234375 5.019531 3.789062 7.246093-3.683593 2.15625-7.0625 4.75-10.082031 7.714844.964844-5.40625 3.132812-10.515625 6.292969-14.960937zm30.058593 58.339843c-14.902343 0-27.761718-8.878906-33.589843-21.617187 3.914062-8.601563 10.921875-15.339844 19.707031-18.894532 4.203125 2.03125 8.914062 3.167969 13.882812 3.167969 4.972657 0 9.683594-1.136719 13.886719-3.167969 8.78125 3.554688 15.792969 10.292969 19.707031 18.894532-5.832031 12.738281-18.691406 21.617187-33.59375 21.617187zm0 0"/><path d="m285.359375 360.214844h-10.425781c-4.140625 0-7.5 3.359375-7.5 7.5 0 4.144531 3.359375 7.5 7.5 7.5h10.425781c4.140625 0 7.5-3.355469 7.5-7.5 0-4.140625-3.359375-7.5-7.5-7.5zm0 0"/><path d="m243.667969 360.214844c-4.144531 0-7.5 3.359375-7.5 7.5 0 4.144531 3.355469 7.5 7.5 7.5h10.421875c4.140625 0 7.5-3.355469 7.5-7.5 0-4.140625-3.359375-7.5-7.5-7.5zm0 0"/><path d="m298.703125 367.714844c0 4.144531 3.359375 7.5 7.5 7.5h6c4.144531 0 7.5-3.355469 7.5-7.5v-6c0-4.140625-3.355469-7.5-7.5-7.5-3.671875 0-6.726563 2.640625-7.375 6.128906-3.484375.644531-6.125 3.699219-6.125 7.371094zm0 0"/><path d="m312.203125 166.765625c4.144531 0 7.5-3.359375 7.5-7.5v-11.910156c0-4.144531-3.355469-7.5-7.5-7.5-4.140625 0-7.5 3.355469-7.5 7.5v11.910156c0 4.140625 3.359375 7.5 7.5 7.5zm0 0"/><path d="m304.703125 266.445312c0 4.144532 3.359375 7.5 7.5 7.5 4.144531 0 7.5-3.355468 7.5-7.5v-11.910156c0-4.140625-3.355469-7.5-7.5-7.5-4.140625 0-7.5 3.359375-7.5 7.5zm0 0"/><path d="m304.703125 230.71875c0 4.140625 3.359375 7.5 7.5 7.5 4.144531 0 7.5-3.359375 7.5-7.5v-11.910156c0-4.144532-3.355469-7.5-7.5-7.5-4.140625 0-7.5 3.355468-7.5 7.5zm0 0"/><path d="m304.703125 194.992188c0 4.140624 3.359375 7.5 7.5 7.5 4.144531 0 7.5-3.359376 7.5-7.5v-11.910157c0-4.140625-3.355469-7.5-7.5-7.5-4.140625 0-7.5 3.359375-7.5 7.5zm0 0"/><path d="m304.703125 302.171875c0 4.140625 3.359375 7.5 7.5 7.5 4.144531 0 7.5-3.359375 7.5-7.5v-11.910156c0-4.144531-3.355469-7.5-7.5-7.5-4.140625 0-7.5 3.355469-7.5 7.5zm0 0"/><path d="m304.703125 337.898438c0 4.140624 3.359375 7.5 7.5 7.5 4.144531 0 7.5-3.359376 7.5-7.5v-11.910157c0-4.140625-3.355469-7.5-7.5-7.5-4.140625 0-7.5 3.359375-7.5 7.5zm0 0"/><path d="m420.632812 226.09375c4.140626 0 7.5-3.355469 7.5-7.5s-3.359374-7.5-7.5-7.5h-12c-4.144531 0-7.5 3.355469-7.5 7.5s3.355469 7.5 7.5 7.5zm0 0"/><path d="m372.632812 226.09375h12c4.140626 0 7.5-3.355469 7.5-7.5s-3.359374-7.5-7.5-7.5h-12c-4.144531 0-7.5 3.355469-7.5 7.5s3.355469 7.5 7.5 7.5zm0 0"/><path d="m348.632812 226.09375c4.140626 0 7.5-3.355469 7.5-7.5s-3.359374-7.5-7.5-7.5h-12c-4.144531 0-7.5 3.355469-7.5 7.5s3.355469 7.5 7.5 7.5zm0 0"/><path d="m456.632812 226.09375c4.140626 0 7.5-3.355469 7.5-7.5s-3.359374-7.5-7.5-7.5h-12c-4.144531 0-7.5 3.355469-7.5 7.5s3.355469 7.5 7.5 7.5zm0 0"/><path d="m180.355469 226.09375c4.144531 0 7.5-3.355469 7.5-7.5s-3.355469-7.5-7.5-7.5h-12c-4.140625 0-7.5 3.355469-7.5 7.5s3.359375 7.5 7.5 7.5zm0 0"/><path d="m252.355469 211.09375h-12c-4.140625 0-7.5 3.355469-7.5 7.5s3.359375 7.5 7.5 7.5h12c4.144531 0 7.5-3.355469 7.5-7.5s-3.355469-7.5-7.5-7.5zm0 0"/><path d="m144.355469 226.09375c4.144531 0 7.5-3.355469 7.5-7.5s-3.355469-7.5-7.5-7.5h-12c-4.140625 0-7.5 3.355469-7.5 7.5s3.359375 7.5 7.5 7.5zm0 0"/><path d="m216.355469 226.09375c4.144531 0 7.5-3.355469 7.5-7.5s-3.355469-7.5-7.5-7.5h-12c-4.140625 0-7.5 3.355469-7.5 7.5s3.359375 7.5 7.5 7.5zm0 0"/><path d="m276.355469 226.09375h12c4.144531 0 7.5-3.355469 7.5-7.5s-3.355469-7.5-7.5-7.5h-12c-4.140625 0-7.5 3.355469-7.5 7.5s3.359375 7.5 7.5 7.5zm0 0"/></svg>